<?xml version="1.0" encoding="utf-8"?>
<!-- Generator: Adobe Illustrator 19.2.1, SVG Export Plug-In . SVG Version: 6.00 Build 0)  -->
<svg version="1.1" xmlns="http://www.w3.org/2000/svg" xmlns:xlink="http://www.w3.org/1999/xlink" x="0px" y="0px"
	 viewBox="0 0 135.3 90.5" style="enable-background:new 0 0 135.3 90.5;" xml:space="preserve">
<style type="text/css">
	.st0{fill:none;stroke:#000000;stroke-miterlimit:10;}
</style>
<g id="Layer_1">
</g>
<g id="Layer_2">
	<path class="st0" d="M117.3,169.5"/>
	<path d="M134.6,47.7c-0.1,0.1-0.1,0.2-0.2,0.4c-0.2,0.3-0.4,0.5-0.6,0.8L93.5,89c-1,1-2.3,1.5-3.5,1.5S87.4,90,86.5,89
		c-2-2-2-5.1,0-7.1l31.7-31.7H5c-2.8,0-5-2.2-5-5c0-2.8,2.2-5,5-5h113.2L86.5,8.5c-2-2-2-5.1,0-7.1c2-2,5.1-2,7.1,0l40.2,40.2
		c0.2,0.2,0.4,0.5,0.6,0.8c0.1,0.1,0.1,0.3,0.2,0.4c0.1,0.2,0.2,0.3,0.3,0.5c0.1,0.2,0.1,0.3,0.2,0.5c0,0.1,0.1,0.3,0.1,0.4
		c0.1,0.3,0.1,0.7,0.1,1l0,0c0,0,0,0,0,0c0,0.3,0,0.7-0.1,1c0,0.2-0.1,0.3-0.1,0.4c0,0.2-0.1,0.3-0.2,0.5
		C134.8,47.3,134.7,47.5,134.6,47.7z"/>
</g>
</svg>
