<?xml version="1.0" encoding="utf-8"?>
<!-- Generator: Adobe Illustrator 19.0.0, SVG Export Plug-In . SVG Version: 6.00 Build 0)  -->
<svg version="1.1" id="Layer_1" xmlns="http://www.w3.org/2000/svg" xmlns:xlink="http://www.w3.org/1999/xlink" x="0px" y="0px"
	 viewBox="48 -35.5 135.3 90.5" style="enable-background:new 48 -35.5 135.3 90.5;" xml:space="preserve">
<style type="text/css">
	.st0{fill:none;stroke:#000000;stroke-miterlimit:10;}
	.st1{fill:#FFFFFF;}
</style>
<g id="Layer_1_1_">
</g>
<g id="Layer_2">
	<path class="st0" d="M165.3,134"/>
	<path class="st1" d="M182.6,12.2c-0.1,0.1-0.1,0.2-0.2,0.4c-0.2,0.3-0.4,0.5-0.6,0.8l-40.3,40.1c-1,1-2.3,1.5-3.5,1.5
		s-2.6-0.5-3.5-1.5c-2-2-2-5.1,0-7.1l31.7-31.7H53c-2.8,0-5-2.2-5-5s2.2-5,5-5h113.2L134.5-27c-2-2-2-5.1,0-7.1s5.1-2,7.1,0
		l40.2,40.2c0.2,0.2,0.4,0.5,0.6,0.8c0.1,0.1,0.1,0.3,0.2,0.4c0.1,0.2,0.2,0.3,0.3,0.5s0.1,0.3,0.2,0.5c0,0.1,0.1,0.3,0.1,0.4
		c0.1,0.3,0.1,0.7,0.1,1l0,0l0,0c0,0.3,0,0.7-0.1,1c0,0.2-0.1,0.3-0.1,0.4c0,0.2-0.1,0.3-0.2,0.5C182.8,11.8,182.7,12,182.6,12.2z"
		/>
</g>
</svg>
